<?xml version="1.0"?>
<svg xmlns="http://www.w3.org/2000/svg" xmlns:xlink="http://www.w3.org/1999/xlink" version="1.1" id="Capa_1" x="0px" y="0px" viewBox="0 0 512 512" style="enable-background:new 0 0 512 512;" xml:space="preserve" width="512px" height="512px"><g><g>
	<path d="M336.099,170.62c-2.996,3.001-175.946,176.266-165,165.3c-11.4-5.4-30.599-14.7-33.6-16.201   C140.501,317.321,324.699,179.019,336.099,170.62z" data-original="#000000" class="active-path" data-old_color="#ffffff" fill="#ffffff"/>
	<polygon points="172.899,370.419 173.2,370.419 172.899,371.02  " data-original="#000000" class="active-path" data-old_color="#ffffff" fill="#ffffff"/>
	<path d="M512,37.02L420.7,485.02c-0.899,4.801-4.499,9-9.3,10.8c-4.2,2.1-9.901,1.201-14.099-1.5   c-2.431-1.942-202.336-144.304-199.801-142.5C307.257,242.062,402.383,146.81,512,37.02z" data-original="#000000" class="active-path" data-old_color="#ffffff" fill="#ffffff"/>
	<path d="M128.5,348.82c0.504,3.038,16.65,99.901,22.2,133.2c0.604-3.021,23.463-117.318,22.2-111l0.3-0.601h-0.3   C169.876,368.949,125.477,347.35,128.5,348.82z" data-original="#000000" class="active-path" data-old_color="#ffffff" fill="#ffffff"/>
	<polygon points="199.6,389.92 179.801,489.52 246.4,422.919  " data-original="#000000" class="active-path" data-old_color="#ffffff" fill="#ffffff"/>
	<g>
		<path d="M493.671,15.02C30.216,217.793,14.853,225.659,9,228.22c-5.4,2.401-8.699,7.5-9,13.5c0,5.7,2.999,11.1,8.401,13.801    l99.099,49.199C670.108-117.352-100.336,460.508,493.671,15.02z" data-original="#000000" class="active-path" data-old_color="#ffffff" fill="#ffffff"/>
	</g>
</g></g> </svg>
